<?xml version="1.0" standalone="no"?>
<!DOCTYPE svg PUBLIC "-//W3C//DTD SVG 20010904//EN"
 "http://www.w3.org/TR/2001/REC-SVG-20010904/DTD/svg10.dtd">
<svg version="1.0" xmlns="http://www.w3.org/2000/svg"
 width="500.000000pt" height="500.000000pt" viewBox="0 0 500.000000 500.000000"
 preserveAspectRatio="xMidYMid meet">

<g transform="translate(0.000000,500.000000) scale(0.100000,-0.100000)"
fill="#000000" stroke="none">
<path d="M2430 3428 c-169 -59 -309 -205 -370 -384 -33 -101 -41 -256 -18
-352 22 -90 47 -149 99 -228 l39 -60 0 -392 0 -392 -80 0 c-64 0 -80 -3 -80
-15 0 -13 59 -15 469 -15 417 0 471 2 486 16 13 13 15 40 13 177 -2 104 -7
162 -14 164 -6 2 -22 -40 -37 -99 -32 -121 -64 -174 -127 -205 -42 -22 -56
-23 -252 -23 l-208 0 0 321 c0 302 1 321 18 314 84 -37 131 -47 212 -43 99 4
181 36 241 94 l36 35 51 -55 c28 -31 55 -56 61 -56 8 0 11 60 11 185 0 107 -4
185 -9 185 -5 0 -21 -25 -35 -56 -88 -191 -204 -291 -348 -302 -81 -6 -144 10
-198 49 l-40 29 0 215 0 214 82 3 c53 2 83 7 85 15 3 9 -30 13 -134 15 l-138
3 3 145 c2 80 9 173 17 208 45 194 162 293 330 280 152 -13 272 -113 334 -281
22 -57 31 -15 31 138 0 101 -4 156 -11 161 -6 3 -30 -12 -52 -34 l-42 -41 -82
41 c-76 38 -89 41 -180 45 -83 3 -108 0 -163 -19z"/>
<path d="M1916 638 c-21 -30 -20 -44 4 -68 21 -21 65 -27 75 -10 4 7 -2 9 -19
4 -32 -8 -56 10 -56 41 0 30 24 48 55 43 13 -3 22 -1 19 3 -11 18 -63 9 -78
-13z"/>
<path d="M2033 605 c0 -33 2 -48 4 -32 4 23 9 27 38 27 29 0 34 -4 38 -27 2
-16 4 -1 4 32 0 33 -2 48 -4 33 -4 -24 -9 -28 -38 -28 -29 0 -34 4 -38 28 -2
15 -4 0 -4 -33z"/>
<path d="M2173 623 c-8 -21 -19 -47 -25 -58 -8 -19 -8 -19 5 -2 8 9 28 17 45
17 19 0 35 -7 42 -17 13 -21 11 -13 -14 50 -10 26 -23 47 -28 47 -5 0 -16 -17
-25 -37z m47 -25 c0 -4 -11 -8 -25 -8 -23 0 -24 2 -13 26 11 24 13 25 25 8 7
-10 13 -21 13 -26z"/>
<path d="M2277 653 c19 -4 23 -12 26 -56 l3 -52 2 52 c2 45 5 52 25 56 12 2 0
4 -28 4 -27 0 -40 -2 -28 -4z"/>
<path d="M2373 605 c0 -33 2 -45 4 -27 2 18 2 45 0 60 -2 15 -4 0 -4 -33z"/>
<path d="M2424 613 c-25 -63 -27 -71 -14 -50 14 22 80 24 80 2 0 -8 4 -15 10
-15 11 0 -35 103 -48 108 -5 1 -18 -19 -28 -45z m34 -21 c-27 -5 -32 2 -18 29
l13 22 13 -24 c11 -22 11 -24 -8 -27z"/>
<path d="M2572 608 l-2 -58 43 2 42 1 -37 4 c-37 4 -37 4 -41 56 l-3 52 -2
-57z"/>
<path d="M2672 648 c-17 -17 -15 -64 4 -82 36 -36 94 -9 94 44 0 43 -67 69
-98 38z m76 -10 c28 -28 7 -78 -33 -78 -27 0 -45 18 -45 45 0 27 18 45 45 45
12 0 26 -5 33 -12z"/>
<path d="M2806 644 c-47 -46 19 -120 74 -84 11 7 6 8 -17 4 -39 -8 -63 8 -63
41 0 32 24 49 61 41 18 -3 28 -2 24 4 -10 16 -62 12 -79 -6z"/>
<path d="M2924 613 c-25 -63 -27 -71 -14 -50 14 22 80 24 80 2 0 -8 4 -15 10
-15 11 0 -35 103 -48 108 -5 1 -18 -19 -28 -45z m34 -21 c-27 -5 -32 2 -18 29
l13 22 13 -24 c11 -22 11 -24 -8 -27z"/>
<path d="M3032 608 l-2 -58 38 2 c36 1 36 1 5 5 -31 4 -32 6 -36 56 l-3 52 -2
-57z"/>
</g>
</svg>
